<?xml version="1.0" encoding="utf-8"?>
<!-- Generator: Adobe Illustrator 27.9.0, SVG Export Plug-In . SVG Version: 6.00 Build 0)  -->
<svg version="1.1" id="Layer_1" xmlns="http://www.w3.org/2000/svg" xmlns:xlink="http://www.w3.org/1999/xlink" x="0px" y="0px"
	 viewBox="0 0 360 360" style="enable-background:new 0 0 360 360;" xml:space="preserve">
<style type="text/css">
	.st0{fill:#8A1538;}
</style>
<g>
	<path class="st0" d="M271.2,190.3c-0.6-0.5-0.4-0.9-0.3-1.3c0.6-2.2,1.2-4.3,1.9-6.5c0.5-1.6,1.3-3.1,1.8-4.8
		c1.4-4.6,2.7-9.3,4.3-13.9c0.9-2.6,1.8-5.3,2.6-7.9c0.2-0.6,0.6-1.2,0.1-1.8c-0.5-0.5-1.1-0.1-1.6,0.1c-5.2,1.7-10.6,2.5-15.9,3.8
		c-4.6,1.1-9.4,1.8-14,2.9c-4.7,1.1-9.5,1.7-14.2,2.5c-6.8,1.2-13.5,2-20.4,2.8c-6.1,0.7-12.3,1.5-18.5,1.8
		c-7.4,0.4-14.9,0.9-22.3,0.7c-0.3,0-0.7-0.1-1.1-0.3c0.9-0.3,1.8-0.7,2.8-0.9c4.6-0.8,9.3-1.6,14-2.4c4.1-0.8,8.1-1.7,12.2-2.6
		c4.8-1,9.4-2.3,14.1-3.5c4.8-1.2,9.6-2.5,14.4-4.1c2.6-0.9,5.3-1.4,7.9-2.4c4.8-1.7,9.7-3.2,14.6-4.9c3.6-1.2,7.2-2.6,10.7-4
		c5.9-2.4,11.9-4.5,17.7-7.2c3.4-1.6,6.9-3.1,10.4-4.8c6.7-3.3,13.5-6.6,20-10.3c2.3-1.3,4.7-2.7,7-4c0.4-0.2,0.9-0.5,1.4-0.6
		C304.5,141.6,287.8,165.9,271.2,190.3z"/>
	<path class="st0" d="M125,197.4c0-6.9,0-13.8,0-20.7c0-1.9,0-1.9,1.9-1.9c10.8,0,21.6,0,32.4,0c3.4,0,6.8,0.4,9.9,2
		c3.8,2,5.4,5.4,5.6,9.4c0.2,4.1,0.3,8.1-0.3,12.2c-0.2,1.1-0.8,2-1.6,2.7c-0.7,0.6-0.6,1.2,0,1.6c1.9,1.4,2.4,3.5,2.4,5.6
		c0.1,3.4,0,6.9,0.1,10.4c0,0.9-0.3,1.2-1.1,1.2c-2.9,0-5.8-0.1-8.6,0c-1,0-1.3-0.3-1.3-1.3c0.1-2,0-4.1,0-6.1c0-3.3-1.8-5.3-5-5.8
		c-1.4-0.2-2.8-0.2-4.2-0.2c-5.8,0-11.6,0-17.4,0c-1.3,0-1.7,0.5-1.7,1.7c0.1,3.4,0,6.8,0.1,10.2c0,1.1-0.4,1.5-1.4,1.4
		c-2.7,0-5.5-0.1-8.2,0c-1.1,0-1.4-0.3-1.4-1.4C125,211.4,125,204.4,125,197.4C125,197.4,125,197.4,125,197.4z M148.8,185.9
		C148.8,185.9,148.8,185.9,148.8,185.9c-3.6,0-7.3,0-10.9,0c-2,0-2,0-2,2c0,1.9,0,3.9,0,5.9c0,1.7,0.1,1.8,1.8,1.8c7,0,14,0,21,0
		c0.7,0,1.3-0.1,2-0.2c2.1-0.4,3-1.1,3.1-3.2c0.3-4.3-0.1-6.5-5.2-6.4C155.4,185.9,152.1,185.9,148.8,185.9z"/>
	<path class="st0" d="M180.3,219.9c0.7-2.2,1.8-3.8,2.7-5.6c2.4-4.7,4.8-9.3,7.2-14c2.6-5,5.2-9.9,7.8-14.9c1.6-3.2,3.3-6.3,4.9-9.5
		c0.4-0.8,0.9-1.1,1.8-1.1c5,0,9.9,0,14.9,0c0.9,0,1.4,0.3,1.8,1.2c1.6,3.4,3.4,6.6,5.1,9.9c1.9,3.7,3.9,7.5,5.9,11.2
		c3.1,6,6.2,12.1,9.4,18.1c0.6,1.2,1.2,2.4,1.9,3.6c0.3,0.7,0.1,1.1-0.6,1.1c-3.7,0-7.4,0-11.2,0c-0.7,0-0.9-0.5-1.2-1
		c-1.4-2.7-2.8-5.4-4.1-8.2c-0.5-1-1.2-1.4-2.3-1.4c-8,0-16,0-24.1,0c-1.2,0-1.9,0.4-2.4,1.6c-1.4,2.8-2.9,5.5-4.3,8.2
		c-0.2,0.4-0.4,0.7-0.8,0.7C188.5,219.9,184.5,219.9,180.3,219.9z M220.5,199.6c-2.6-5.4-5.3-10.7-8.4-16.2
		c-0.3,0.5-0.4,0.6-0.5,0.7c-2.6,4.8-5.1,9.6-7.6,14.4c-0.7,1.3-0.6,1.5,0.9,1.5c4.7,0,9.5,0,14.2,0
		C219.5,200,220,200.1,220.5,199.6z"/>
	<path class="st0" d="M65.4,191.6c0-4.8,0-9.6,0-14.5c0-2.2,0-2.3,2.3-2.3c2.3,0,4.7,0.1,7,0c1.3,0,1.7,0.4,1.7,1.7
		c0,8.8,0,17.5,0,26.3c0,1.3,0.1,2.6,0.5,3.9c0.7,2,2,3.1,4,3.5c1.9,0.4,3.9,0.7,5.9,0.6c3.5-0.1,7-0.1,10.5,0c1.7,0,3.4-0.2,5-0.5
		c2.6-0.4,4.2-2.3,4.6-4.9c0.2-1.4,0.3-2.7,0.3-4.1c0-8.2,0-16.4,0-24.6c0-1.9,0.1-2,1.9-2c2.5,0,5.1,0,7.6,0c1.1,0,1.5,0.4,1.5,1.5
		c0,9.9,0,19.8-0.1,29.6c0,2.4-0.4,4.8-1.5,7.1c-1.8,3.9-5.1,5.7-9.1,6.2c-9.2,1.3-18.5,0.5-27.7,0.5c-2.6,0-5.3-0.6-7.7-1.8
		c-3.8-1.9-5.8-5.2-6.4-9.3c-0.2-1.6-0.3-3.2-0.3-4.8C65.4,199.8,65.4,195.7,65.4,191.6L65.4,191.6z"/>
	<path class="st0" d="M247.8,197.3c0-6.9,0-13.9,0-20.9c0-1.4,0.5-1.9,1.7-1.8c2.7,0.2,5.5,0,8.2-0.1c0.9,0,1.2,0.4,1.2,1.1
		c0,0.6,0,1.2,0,1.9c0,10.4,0,20.7,0,31.1c0,2,0,2,2.1,2c8,0,16,0,24,0c1.7,0,1.8,0.1,1.8,1.8c0,2-0.1,4,0,6
		c0.1,1.3-0.4,1.6-1.6,1.6c-5.8,0-11.5,0-17.3,0c-6.1,0-12.2,0-18.3,0c-1.9,0-1.9,0-1.9-1.9C247.9,211.2,247.9,204.2,247.8,197.3
		L247.8,197.3z"/>
	<path class="st0" d="M277.5,224.8c2.4,0,4.6,0.1,6.7,0c1.4-0.1,1.4,0.7,1.4,1.7c0,0.9,0.1,1.7-1.3,1.7c-3.7-0.1-7.4,0-11.2,0
		c-0.5,0-1,0-1.5,0c-1,0.1-1.8,0.6-1.9,1.7c-0.1,1.1,0.7,1.7,1.7,1.8c1.2,0.1,2.5,0.1,3.7,0.1c1.8,0,3.6,0,5.5,0
		c4.5,0.1,7.3,4.1,5.5,8.3c-0.7,1.6-2.2,2.6-4,2.9c-1.8,0.3-3.6,0.3-5.4,0.3c-2.9,0-5.8-0.1-8.8,0c-1.3,0-1.6-0.6-1.6-1.8
		c0-1.2,0.5-1.7,1.7-1.6c4,0,8,0,12,0c0.9,0,1.8-0.1,2.5-0.6c0.7-0.5,1.2-1.1,1-2c-0.1-0.9-0.6-1.5-1.5-1.7
		c-0.9-0.3-1.8-0.5-2.7-0.5c-2.7,0-5.3,0.1-8,0c-3.8-0.1-6-2.9-5.2-6.4c0.5-1.9,1.8-3,3.6-3.4C272.5,224.5,275.2,225,277.5,224.8z"
		/>
	<path class="st0" d="M107.3,224.8c1.8,0.1,4.1-0.2,6.2,0.7c3.7,1.7,5.3,4.6,5.1,9.3c-0.2,3.6-2.4,6.9-6,7.8
		c-4.1,1-8.4,1.3-12.5-0.4c-3-1.2-4.6-3.7-5.1-6.8c-0.7-4.6,1.5-8.5,5.8-10.1C102.8,224.6,104.8,224.8,107.3,224.8z M107.2,228.1
		c-1.2,0-2.2,0-3.1,0c-3.2,0.1-5.7,2.7-5.7,6.1c0,3.2,2.4,5.6,5.6,5.6c1.8,0,3.7,0,5.6,0c3-0.1,5.2-1.9,5.7-4.7
		c0.5-2.7-1-5.2-3.5-6.5C110.2,227.9,108.5,228.3,107.2,228.1z"/>
	<path class="st0" d="M172.5,234.1c0-2.6,0-5.2,0-7.8c0-0.7,0-1.4,1-1.4c3.8,0.1,7.6-0.3,11.3,0.2c5,0.7,8.1,5.4,7.3,10.4
		c-0.7,4.3-4.4,7.6-8.3,7.7c-3.4,0.1-6.7,0-10.1,0.1c-1,0-1.2-0.5-1.2-1.4C172.5,239.3,172.5,236.7,172.5,234.1L172.5,234.1z
		 M175.6,233.9c0,1.6,0,3.2,0,4.8c0,0.7,0.2,1.2,1.1,1.2c2.4,0,4.8,0.1,7.2-0.1c2.9-0.2,4.9-2.7,5-5.7c0.1-3.4-2.8-5.9-5.2-6
		c-2.3-0.1-4.6,0-6.9,0c-0.8,0-1.2,0.3-1.2,1.2C175.6,230.9,175.6,232.4,175.6,233.9z"/>
	<path class="st0" d="M226.1,242.9c-1.3,0.3-2.5,0.1-3.7,0.1c-0.4,0-0.5-0.3-0.7-0.6c-0.6-1-1.2-1.9-1.7-2.9c-0.6-1-1.3-1.4-2.5-1.3
		c-1.8,0.1-3.5,0-5.3,0c-0.4,0-0.9,0.1-1.2-0.4c-0.2-0.5,0.2-0.8,0.3-1.2c0.8-2,2.3-2,4-1.9c1.6,0.1,1.7-0.1,0.9-1.5
		c-0.6-1-1-2.1-2.1-2.8c-1,0.5-1.5,1.5-2,2.5c-1.6,3.3-4,6.2-5.7,9.4c-0.2,0.4-0.5,0.6-0.9,0.6c-1.1,0-2.1,0-3.2,0
		c0.1-1.4,0.9-2.2,1.4-3.1c2.6-4.5,5.4-8.9,8-13.4c1.2-2.1,3.9-1.8,4.8-0.3c3.2,5.3,6.3,10.6,9.4,16
		C226,242.3,226,242.5,226.1,242.9z"/>
	<path class="st0" d="M244.2,243.3c-0.2-1.8-0.1-3.4-0.1-5.1c0-0.7-0.2-1.3-0.6-1.8c-2.6-3.4-5.2-6.7-7.7-10.1
		c-0.3-0.4-0.7-0.7-0.4-1.3c0.3-0.5,0.8-0.2,1.2-0.3c2.5-0.7,3.4,1.3,4.6,2.7c1.3,1.6,2.4,3.2,3.7,4.8c0.9,1.1,1.2,1.1,2.1-0.1
		c1.5-2.1,3-4.1,4.5-6.2c0.7-1,3-1.7,4.1-1.1c0.7,0.3,0.3,0.7,0.1,1.2c-1.1,2.1-2.8,3.6-4.1,5.5c-0.9,1.3-1.9,2.6-2.9,3.9
		c-1.2,1.5-1.2,3.2-1.2,5C247.5,243.5,247.4,243.6,244.2,243.3z"/>
	<path class="st0" d="M128.9,233.9c0-2.6,0-5.1,0-7.7c0-0.9,0.1-1.6,1.3-1.5c1.1,0,2.1,0.1,2.1,1.5c0,2.1,0,4.2,0,6.2c0,2,0,4,0,6
		c0,1,0.4,1.4,1.4,1.4c3.2,0,6.4,0,9.6,0c1.2,0,1.7,0.4,1.6,1.6c-0.1,1.6-0.2,1.9-1.7,1.9c-4.3,0-8.6,0-12.9,0
		c-1.2,0-1.5-0.4-1.4-1.5C128.9,239.2,128.9,236.6,128.9,233.9L128.9,233.9z"/>
	<path class="st0" d="M83.9,234.1c0,2.5,0,5.1,0,7.6c0,1.2-0.5,1.5-1.6,1.5c-1.1,0-1.6-0.4-1.6-1.6c0.1-1.5,0-3,0-4.5
		c0.1-1.2-0.5-1.6-1.7-1.6c-2.4,0-4.9,0-7.3,0c-1.2,0-1.6-0.4-1.6-1.5c0-1.1,0.3-1.6,1.5-1.6c2.5,0.1,5.1,0,7.6,0
		c1,0,1.6-0.3,1.5-1.4c-0.1-1.5,0-3.1,0-4.6c0-1.2,0.6-1.4,1.7-1.5c1.1,0,1.5,0.4,1.4,1.5C83.8,229,83.9,231.6,83.9,234.1z"/>
	<path class="st0" d="M68.7,234.2c0,2.5,0,4.9,0,7.4c0,1.2-0.4,1.7-1.6,1.7c-1.2,0-1.8-0.5-1.7-1.7c0-5,0-10,0-15
		c0-1.2,0.5-1.8,1.7-1.8c1.3,0,1.7,0.6,1.6,1.8C68.7,229.1,68.7,231.6,68.7,234.2z"/>
	<path class="st0" d="M159.2,234c0,2.5,0,5,0,7.6c0,1.1-0.4,1.6-1.5,1.6c-1.1,0-1.6-0.3-1.6-1.5c0-5.1,0-10.2,0-15.3
		c0-1.2,0.5-1.6,1.7-1.6c1.3,0,1.5,0.6,1.4,1.7C159.1,229,159.2,231.5,159.2,234z"/>
</g>
</svg>
