<svg width="10" height="10" viewBox="0 0 10 10" fill="none" xmlns="http://www.w3.org/2000/svg">
<path d="M0 5C0 4.0111 0.293245 3.0444 0.842652 2.22215C1.39206 1.3999 2.17295 0.759043 3.08658 0.380605C4.00021 0.00216642 5.00555 -0.0968502 5.97545 0.0960758C6.94535 0.289002 7.83627 0.765206 8.53553 1.46447C9.23479 2.16373 9.711 3.05465 9.90392 4.02455C10.0969 4.99445 9.99783 5.99979 9.6194 6.91342C9.24096 7.82705 8.60009 8.60794 7.77785 9.15735C6.9556 9.70675 5.9889 10 5 10C3.67436 9.99854 2.40344 9.47129 1.46607 8.53393C0.528707 7.59656 0.0014558 6.32564 0 5H0ZM1 5C1 5.79113 1.2346 6.56449 1.67412 7.22228C2.11365 7.88008 2.73836 8.39277 3.46927 8.69552C4.20017 8.99827 5.00444 9.07748 5.78036 8.92314C6.55628 8.7688 7.26902 8.38784 7.82842 7.82843C8.38783 7.26902 8.7688 6.55629 8.92314 5.78036C9.07748 5.00444 8.99827 4.20017 8.69552 3.46927C8.39277 2.73836 7.88008 2.11365 7.22228 1.67412C6.56448 1.2346 5.79112 1 5 1C3.93954 1.00133 2.92289 1.42318 2.17303 2.17304C1.42317 2.92289 1.00132 3.93954 1 5ZM4.5 6.75V4.75C4.5 4.61739 4.55268 4.49022 4.64645 4.39645C4.74021 4.30268 4.86739 4.25 5 4.25C5.13261 4.25 5.25978 4.30268 5.35355 4.39645C5.44732 4.49022 5.5 4.61739 5.5 4.75V6.75C5.5 6.88261 5.44732 7.00979 5.35355 7.10355C5.25978 7.19732 5.13261 7.25 5 7.25C4.86739 7.25 4.74021 7.19732 4.64645 7.10355C4.55268 7.00979 4.5 6.88261 4.5 6.75ZM4.5 3C4.5 2.90111 4.52932 2.80444 4.58426 2.72222C4.6392 2.63999 4.71729 2.57591 4.80866 2.53806C4.90002 2.50022 5.00055 2.49032 5.09754 2.50961C5.19453 2.5289 5.28363 2.57652 5.35355 2.64645C5.42348 2.71637 5.4711 2.80547 5.49039 2.90246C5.50968 2.99945 5.49978 3.09998 5.46194 3.19134C5.42409 3.28271 5.36001 3.3608 5.27778 3.41574C5.19556 3.47068 5.09889 3.5 5 3.5C4.86739 3.5 4.74021 3.44732 4.64645 3.35355C4.55268 3.25979 4.5 3.13261 4.5 3Z" fill="#1C3C6B"/>
</svg>
